<svg width="64" height="64" viewBox="0 0 64 64" fill="none" xmlns="http://www.w3.org/2000/svg">
  <!-- Background circle -->
  <circle cx="32" cy="32" r="30" fill="#10B981"/>

  <!-- Dollar sign -->
  <path d="M32 12 L32 16" stroke="white" stroke-width="3" stroke-linecap="round"/>
  <path d="M32 48 L32 52" stroke="white" stroke-width="3" stroke-linecap="round"/>

  <!-- S shape for dollar -->
  <path d="M 38 20 C 38 17 36 16 32 16 C 28 16 26 17 26 20 C 26 23 28 24 32 26 L 32 26 C 36 28 38 29 38 32 C 38 35 36 36 32 36 C 28 36 26 35 26 32"
        stroke="white"
        stroke-width="4"
        stroke-linecap="round"
        stroke-linejoin="round"
        fill="none"/>

  <!-- Circular chart segments (representing financial tracking) -->
  <g opacity="0.3">
    <path d="M 48 32 A 16 16 0 0 1 32 48" stroke="white" stroke-width="2" fill="none"/>
    <path d="M 32 16 A 16 16 0 0 1 48 32" stroke="white" stroke-width="2" fill="none"/>
  </g>
</svg>
